HIERARCHY
ROOT Hips
{
	OFFSET 0.00000 0.00000 0.00000
	CHANNELS 6 Xposition Yposition Zposition Zrotation Yrotation Xrotation 
	JOINT LHipJoint
	{
		OFFSET 0 0 0
		CHANNELS 3 Zrotation Yrotation Xrotation
		JOINT LeftUpLeg
		{
			OFFSET 1.58161 -1.81893 0.78828
			CHANNELS 3 Zrotation Yrotation Xrotation
			JOINT LeftLeg
			{
				OFFSET 2.53374 -6.96141 0.00000
				CHANNELS 3 Zrotation Yrotation Xrotation
				JOINT LeftFoot
				{
					OFFSET 2.63509 -7.23986 0.00000
					CHANNELS 3 Zrotation Yrotation Xrotation
					JOINT LeftToeBase
					{
						OFFSET 0.14115 -0.38781 2.05350
						CHANNELS 3 Zrotation Yrotation Xrotation
						End Site
						{
							OFFSET 0.00000 -0.00000 1.05543
						}
					}
				}
			}
		}
	}
	JOINT RHipJoint
	{
		OFFSET 0 0 0
		CHANNELS 3 Zrotation Yrotation Xrotation
		JOINT RightUpLeg
		{
			OFFSET -1.11138 -1.81893 0.78828
			CHANNELS 3 Zrotation Yrotation Xrotation
			JOINT RightLeg
			{
				OFFSET -2.58392 -7.09926 0.00000
				CHANNELS 3 Zrotation Yrotation Xrotation
				JOINT RightFoot
				{
					OFFSET -2.66423 -7.31992 0.00000
					CHANNELS 3 Zrotation Yrotation Xrotation
					JOINT RightToeBase
					{
						OFFSET -0.18831 -0.51739 2.12114
						CHANNELS 3 Zrotation Yrotation Xrotation
						End Site
						{
							OFFSET -0.00000 -0.00000 1.09845
						}
					}
				}
			}
		}
	}
	JOINT LowerBack
	{
		OFFSET 0 0 0
		CHANNELS 3 Zrotation Yrotation Xrotation
		JOINT Spine
		{
			OFFSET -0.01511 1.97958 -0.08829
			CHANNELS 3 Zrotation Yrotation Xrotation
			JOINT Spine1
			{
				OFFSET 0.08344 1.97334 -0.04330
				CHANNELS 3 Zrotation Yrotation Xrotation
				JOINT Neck
				{
					OFFSET 0 0 0
					CHANNELS 3 Zrotation Yrotation Xrotation
					JOINT Neck1
					{
						OFFSET 0.00559 1.76246 0.31246
						CHANNELS 3 Zrotation Yrotation Xrotation
						JOINT Head
						{
							OFFSET -0.07011 1.80354 -0.30524
							CHANNELS 3 Zrotation Yrotation Xrotation
							End Site
							{
								OFFSET -0.02385 1.83547 -0.13906
							}
						}
					}
				}
				JOINT LeftShoulder
				{
					OFFSET 0 0 0
					CHANNELS 3 Zrotation Yrotation Xrotation
					JOINT LeftArm
					{
						OFFSET 3.20667 1.30156 -0.60240
						CHANNELS 3 Zrotation Yrotation Xrotation
						JOINT LeftForeArm
						{
							OFFSET 4.95663 -0.00000 0.00000
							CHANNELS 3 Zrotation Yrotation Xrotation
							JOINT LeftHand
							{
								OFFSET 3.38177 -0.00000 0.00000
								CHANNELS 3 Zrotation Yrotation Xrotation
								JOINT LeftFingerBase
								{
									OFFSET 0 0 0
									CHANNELS 3 Zrotation Yrotation Xrotation
									JOINT LeftHandIndex1
									{
										OFFSET 0.66291 -0.00000 0.00000
										CHANNELS 3 Zrotation Yrotation Xrotation
										End Site
										{
											OFFSET 0.53445 -0.00000 0.00000
										}
									}
								}
								JOINT LThumb
								{
									OFFSET 0 0 0
									CHANNELS 3 Zrotation Yrotation Xrotation
									End Site
									{
										OFFSET 0.54261 -0.00000 0.54261
									}
								}
							}
						}
					}
				}
				JOINT RightShoulder
				{
					OFFSET 0 0 0
					CHANNELS 3 Zrotation Yrotation Xrotation
					JOINT RightArm
					{
						OFFSET -3.06877 1.34672 -0.60964
						CHANNELS 3 Zrotation Yrotation Xrotation
						JOINT RightForeArm
						{
							OFFSET -5.08365 -0.00000 0.00000
							CHANNELS 3 Zrotation Yrotation Xrotation
							JOINT RightHand
							{
								OFFSET -3.35984 -0.00000 0.00000
								CHANNELS 3 Zrotation Yrotation Xrotation
								JOINT RightFingerBase
								{
									OFFSET 0 0 0
									CHANNELS 3 Zrotation Yrotation Xrotation
									JOINT RightHandIndex1
									{
										OFFSET -0.82076 -0.00000 0.00000
										CHANNELS 3 Zrotation Yrotation Xrotation
										End Site
										{
											OFFSET -0.66172 -0.00000 0.00000
										}
									}
								}
								JOINT RThumb
								{
									OFFSET 0 0 0
									CHANNELS 3 Zrotation Yrotation Xrotation
									End Site
									{
										OFFSET -0.67182 -0.00000 0.67182
									}
								}
							}
						}
					}
				}
			}
		}
	}
}
MOTION
Frames: 9
Frame Time: .0083333
-2.8474 17.2674 -2.4469 12.1377 41.8239 69.4720 0.0000 0.0000 0.0000 2.5545 -21.7245 -61.1980 1.7264 8.2712 23.5409 -0.5742 -15.4360 -2.7333 0.3414 -3.7547 -10.3875 0.0000 0.0000 0.0000 4.8900 12.7650 -91.1022 -4.4258 -12.7065 38.2793 -0.1179 3.1298 -6.1542 -1.0090 -6.3914 17.9243 9.4557 5.9844 42.1624 11.0916 12.0524 15.0128 2.4809 5.5093 -3.7405 1.2200 -10.9072 -10.9579 -3.3486 -15.2908 -6.6798 -1.5891 -7.8552 -0.6957 -0.0000 -0.0000 0.0000 -84.6602 -15.2105 55.0617 70.9161 -58.5781 -43.5517 -0.0000 0.0000 -21.6335 13.3776 25.7276 5.8941 -7.1250 0.0000 -0.0000 -17.5920 55.4525 -4.6173 -0.0000 -0.0000 0.0000 -28.4980 45.2235 -63.3641 -14.6391 23.6409 -3.0798 0.0000 -0.0000 -11.9344 -46.3838 13.8240 -14.0778 7.1250 -0.0000 -0.0000 -12.4727 -10.7025 -10.1902
-2.8632 17.2675 -2.4308 11.7298 41.6039 69.5481 0.0000 0.0000 0.0000 2.5297 -21.1782 -61.5678 1.7292 8.2777 23.5609 -0.5975 -15.5764 -2.4982 0.3143 -3.6038 -9.9645 0.0000 0.0000 0.0000 4.7113 13.2578 -91.4370 -4.4288 -12.7101 38.2928 -0.1192 3.0951 -6.1808 -1.0100 -6.3944 17.9331 8.8797 6.4189 41.5855 11.1681 12.2702 15.1121 2.7852 5.6066 -3.6030 1.2190 -10.9194 -10.8600 -3.3434 -15.3122 -6.7601 -1.5777 -7.8644 -0.7371 0.0000 0.0000 0.0000 -84.6181 -15.1555 55.1638 71.0447 -58.5979 -43.6615 -0.0000 0.0000 -21.7002 13.6671 25.7631 6.0333 -7.1250 0.0000 -0.0000 -17.3208 55.5436 -4.5818 0.0000 0.0000 0.0000 -28.5194 45.2232 -63.4117 -14.6476 23.6529 -3.0832 0.0000 -0.0000 -11.6541 -46.2733 13.6388 -13.8484 7.1250 -0.0000 -0.0000 -12.4443 -10.9827 -10.0927
-2.8464 17.2674 -2.4405 12.1877 41.6857 69.5773 0.0000 0.0000 0.0000 2.5013 -21.7625 -61.2544 1.7278 8.2745 23.5508 -0.5763 -15.3142 -2.4733 0.2758 -3.3782 -9.3336 0.0000 0.0000 0.0000 4.6715 12.7935 -91.2064 -4.4421 -12.7266 38.3535 -0.1187 3.1628 -6.1787 -1.0433 -6.4957 18.2298 9.3159 6.0821 42.0261 11.1004 12.0972 15.0156 2.5449 5.5291 -3.7295 1.2370 -10.9570 -10.8333 -3.3789 -15.3654 -6.7134 -1.5919 -7.8912 -0.7325 0.0000 0.0000 0.0000 -84.7150 -15.1013 55.2766 70.9729 -58.5869 -43.6003 -0.0000 0.0000 -21.7189 13.6945 25.7895 6.0515 -7.1250 0.0000 -0.0000 -17.3080 55.5743 -4.5913 0.0000 0.0000 0.0000 -28.4105 45.1088 -63.0660 -14.6806 23.6993 -3.0964 0.0000 -0.0000 -11.6077 -46.3112 13.5682 -13.7984 7.1250 -0.0000 -0.0000 -12.4836 -11.0665 -10.1043
-2.8521 17.2616 -2.4371 12.0289 41.7128 69.6842 0.0000 0.0000 0.0000 2.5923 -21.5444 -61.5589 1.7386 8.2988 23.6255 -0.5942 -15.4553 -2.3479 0.2556 -3.2531 -8.9842 0.0000 0.0000 0.0000 4.7574 12.9287 -91.4522 -4.4417 -12.7260 38.3514 -0.1156 3.2403 -6.1132 -1.0734 -6.5859 18.4943 9.2068 6.1980 41.7942 11.1129 12.1656 14.9988 2.5946 5.5605 -3.7073 1.2501 -10.9349 -10.8426 -3.3376 -15.3323 -6.6876 -1.5826 -7.8751 -0.7191 0.0000 0.0000 0.0000 -84.7219 -15.1016 55.2513 70.7718 -58.5558 -43.4286 -0.0000 0.0000 -21.7238 13.5678 25.7281 5.9806 -7.1250 0.0000 -0.0000 -17.4010 55.4904 -4.5812 0.0000 0.0000 0.0000 -28.3465 45.1175 -62.8657 -14.6934 23.7173 -3.1016 0.0000 -0.0000 -11.5150 -46.4499 13.6702 -13.9611 7.1250 -0.0000 -0.0000 -12.5480 -10.8899 -10.2056
-2.8493 17.2602 -2.4363 12.1016 41.7171 69.6787 0.0000 0.0000 0.0000 2.6033 -21.6521 -61.5062 1.7431 8.3091 23.6569 -0.5830 -15.4380 -2.5548 0.3158 -3.6124 -9.9887 0.0000 0.0000 0.0000 4.7899 12.8513 -91.4121 -4.4470 -12.7326 38.3754 -0.1163 3.2536 -6.1316 -1.0581 -6.5403 18.3604 9.2683 6.1384 41.9205 11.0804 12.1343 14.9633 2.5334 5.5441 -3.7626 1.2055 -10.9304 -10.7772 -3.2870 -15.3205 -6.7296 -1.5543 -7.8670 -0.7350 -0.0000 -0.0000 0.0000 -84.6638 -15.0690 55.2973 70.8037 -58.5608 -43.4559 -0.0000 0.0000 -21.7746 13.3164 25.5882 5.8369 -7.1250 0.0000 -0.0000 -17.5749 55.3071 -4.5498 -0.0000 -0.0000 0.0000 -28.3274 45.1435 -62.9056 -14.6919 23.7151 -3.1009 0.0000 -0.0000 -11.2334 -46.3892 13.8697 -14.1241 7.1250 -0.0000 -0.0000 -12.4660 -10.6397 -10.2008
-2.8590 17.2590 -2.4280 11.8504 41.6487 69.7181 0.0000 0.0000 0.0000 2.6594 -21.3355 -61.7839 1.7559 8.3379 23.7453 -0.5951 -15.5715 -2.5402 0.3337 -3.7126 -10.2695 0.0000 0.0000 0.0000 4.8182 13.1138 -91.5975 -4.4373 -12.7206 38.3315 -0.1144 3.2372 -6.0829 -1.0532 -6.5256 18.3174 8.9886 6.3433 41.6321 11.1043 12.2319 15.0021 2.6705 5.5877 -3.7003 1.1545 -10.9182 -10.7264 -3.2314 -15.2978 -6.7798 -1.5240 -7.8535 -0.7499 -0.0000 0.0000 0.0000 -84.6044 -15.0040 55.2481 71.0239 -58.5947 -43.6438 -0.0000 0.0000 -21.7522 13.2394 25.6755 5.8205 -7.1250 0.0000 -0.0000 -17.7014 55.3757 -4.6139 -0.0000 0.0000 0.0000 -28.3568 45.2603 -63.1554 -14.7022 23.7297 -3.1051 0.0000 -0.0000 -10.8117 -46.0649 13.7753 -13.8816 7.1250 -0.0000 -0.0000 -12.2838 -10.8594 -9.9879
-2.8535 17.2632 -2.4270 11.9120 41.8084 69.5775 0.0000 0.0000 0.0000 2.7189 -21.4462 -61.6030 1.7596 8.3464 23.7712 -0.5938 -15.5395 -2.5099 0.3303 -3.6935 -10.2158 0.0000 0.0000 0.0000 5.0246 12.9863 -91.3655 -4.4289 -12.7103 38.2934 -0.1140 3.2578 -6.0756 -1.0567 -6.5361 18.3482 9.2565 6.2038 41.9029 11.1101 12.2031 14.9847 2.5469 5.5741 -3.7444 1.1702 -10.9181 -10.7178 -3.2228 -15.3007 -6.8021 -1.5222 -7.8554 -0.7589 0.0000 -0.0000 0.0000 -84.6362 -14.9599 55.3151 71.2244 -58.6252 -43.8150 -0.0000 0.0000 -21.6409 13.4971 25.9223 5.9900 -7.1250 0.0000 -0.0000 -17.5827 55.6625 -4.7056 0.0000 -0.0000 0.0000 -28.3212 45.1816 -63.0107 -14.7670 23.8205 -3.1312 0.0000 -0.0000 -10.7805 -45.9624 13.4974 -13.5703 7.1250 -0.0000 -0.0000 -12.2798 -11.2595 -9.8813
-2.8608 17.2674 -2.4184 11.5914 41.9489 69.5175 0.0000 0.0000 0.0000 2.9466 -21.1222 -61.8271 1.7669 8.3626 23.8209 -0.6107 -15.6857 -2.4199 0.3206 -3.6398 -10.0655 0.0000 0.0000 0.0000 5.2237 13.2492 -91.4435 -4.4135 -12.6912 38.2232 -0.1159 3.2164 -6.1174 -1.0700 -6.5757 18.4643 9.2140 6.3577 41.6381 11.1950 12.3358 15.0419 2.6272 5.6386 -3.6348 1.2130 -10.8932 -10.6719 -3.2345 -15.2752 -6.8580 -1.5264 -7.8428 -0.7874 -0.0000 0.0000 0.0000 -84.6435 -14.9428 55.3894 71.3450 -58.6433 -43.9179 -0.0000 0.0000 -21.5406 13.7640 26.1325 6.1579 -7.1250 0.0000 -0.0000 -17.4339 55.9169 -4.7728 -0.0000 0.0000 0.0000 -28.2673 45.0380 -62.6416 -14.8516 23.9389 -3.1655 0.0000 -0.0000 -11.1064 -46.1791 13.4745 -13.6476 7.1250 -0.0000 -0.0000 -12.4212 -11.2296 -10.0086
-2.8532 17.2692 -2.4205 11.7793 41.9931 69.5346 0.0000 0.0000 0.0000 2.9922 -21.3996 -61.7053 1.7675 8.3639 23.8250 -0.5968 -15.5736 -2.5090 0.3234 -3.6552 -10.1087 0.0000 0.0000 0.0000 5.1967 13.0649 -91.3109 -4.4087 -12.6853 38.2014 -0.1171 3.2175 -6.1464 -1.0972 -6.6562 18.7008 9.4085 6.2338 41.7889 11.1809 12.2833 15.0160 2.5323 5.6166 -3.6629 1.2922 -10.8865 -10.5096 -3.3042 -15.2893 -7.0393 -1.5413 -7.8492 -0.8834 -0.0000 -0.0000 0.0000 -84.6706 -14.9363 55.5269 71.4573 -58.6601 -44.0138 -0.0000 0.0000 -21.6064 13.7771 26.1479 6.1673 -7.1250 0.0000 -0.0000 -17.4295 55.9344 -4.7790 -0.0000 -0.0000 0.0000 -28.1776 44.8779 -62.3145 -14.9175 24.0310 -3.1923 0.0000 -0.0000 -11.3222 -46.2717 13.4512 -13.6678 7.1250 -0.0000 -0.0000 -12.4844 -11.2346 -10.0608
